<svg width="63" height="14" viewBox="0 0 63 14" fill="none" xmlns="http://www.w3.org/2000/svg">
<path d="M3.708 12.328C4.548 12.328 5.2 12.156 5.664 11.812C6.136 11.468 6.372 11.012 6.372 10.444C6.372 10.036 6.268 9.676 6.06 9.364C5.86 9.052 5.608 8.796 5.304 8.596C5 8.388 4.688 8.184 4.368 7.984C4.056 7.784 3.764 7.532 3.492 7.228C3.22 6.924 3.04 6.58 2.952 6.196C2.224 5.98 1.744 5.528 1.512 4.84C1.424 4.576 1.38 4.3 1.38 4.012C1.38 3.724 1.424 3.424 1.512 3.112C1.696 2.496 1.996 2.032 2.412 1.72L2.544 1.912C2.168 2.184 1.896 2.608 1.728 3.184C1.648 3.472 1.608 3.748 1.608 4.012C1.608 4.276 1.648 4.528 1.728 4.768C1.92 5.352 2.316 5.744 2.916 5.944C2.9 5.856 2.892 5.72 2.892 5.536C2.892 4.488 3.272 3.64 4.032 2.992C4.792 2.344 5.72 2.02 6.816 2.02C7.536 2.02 8.112 2.216 8.544 2.608C8.912 2.952 9.096 3.376 9.096 3.88C9.096 4.376 8.928 4.808 8.592 5.176C8.256 5.536 7.804 5.716 7.236 5.716C6.924 5.716 6.668 5.656 6.468 5.536C6.06 5.848 5.576 6.072 5.016 6.208C5.176 6.36 5.548 6.64 6.132 7.048C6.724 7.456 7.164 7.848 7.452 8.224C7.748 8.592 7.896 9.024 7.896 9.52C7.896 10.432 7.54 11.172 6.828 11.74C6.124 12.308 5.228 12.592 4.14 12.592C3.06 12.592 2.244 12.352 1.692 11.872C1.212 11.464 0.972 10.964 0.972 10.372C0.972 9.788 1.16 9.288 1.536 8.872C1.92 8.448 2.396 8.236 2.964 8.236C3.532 8.236 3.952 8.364 4.224 8.62C4.496 8.868 4.632 9.172 4.632 9.532C4.632 9.892 4.52 10.212 4.296 10.492C4.08 10.772 3.796 10.912 3.444 10.912C3.092 10.912 2.812 10.8 2.604 10.576C2.412 10.384 2.304 10.144 2.28 9.856C2.272 9.776 2.272 9.728 2.28 9.712L2.508 9.724C2.5 10.004 2.588 10.236 2.772 10.42C2.924 10.588 3.144 10.672 3.432 10.672C3.728 10.672 3.964 10.556 4.14 10.324C4.316 10.1 4.404 9.84 4.404 9.544C4.404 9.24 4.3 8.996 4.092 8.812C3.86 8.58 3.488 8.464 2.976 8.464C2.464 8.464 2.04 8.652 1.704 9.028C1.368 9.396 1.2 9.84 1.2 10.36C1.2 10.888 1.416 11.336 1.848 11.704C2.104 11.928 2.364 12.088 2.628 12.184C2.9 12.28 3.26 12.328 3.708 12.328ZM5.748 4.072C5.748 3.72 5.836 3.428 6.012 3.196C6.196 2.964 6.444 2.848 6.756 2.848C7.292 2.848 7.56 3.144 7.56 3.736C7.56 4.32 7.268 4.872 6.684 5.392C6.86 5.472 7.044 5.512 7.236 5.512C7.732 5.512 8.128 5.352 8.424 5.032C8.72 4.704 8.868 4.324 8.868 3.892C8.868 3.452 8.708 3.08 8.388 2.776C7.996 2.424 7.48 2.248 6.84 2.248C6.2 2.248 5.656 2.404 5.208 2.716C4.512 3.212 4.164 3.852 4.164 4.636C4.164 5.284 4.38 5.756 4.812 6.052C5.348 5.932 5.844 5.716 6.3 5.404C5.932 5.076 5.748 4.632 5.748 4.072ZM6.744 3.064C6.504 3.064 6.316 3.156 6.18 3.34C6.052 3.524 5.988 3.768 5.988 4.072C5.988 4.592 6.152 4.988 6.48 5.26C6.72 5.092 6.92 4.864 7.08 4.576C7.24 4.288 7.32 4.004 7.32 3.724C7.32 3.284 7.128 3.064 6.744 3.064ZM14.2075 9.868C14.3995 9.868 14.5995 9.756 14.8075 9.532L14.9875 9.676C14.9315 9.788 14.8075 9.888 14.6155 9.976C14.4235 10.064 14.2115 10.108 13.9795 10.108C13.2515 10.108 12.8875 9.78 12.8875 9.124C12.8875 8.844 12.9595 8.344 13.1035 7.624C13.2475 6.904 13.3195 6.432 13.3195 6.208C13.3195 5.864 13.1555 5.692 12.8275 5.692C12.5555 5.692 12.2915 5.876 12.0355 6.244C11.7875 6.612 11.5835 7.112 11.4235 7.744L11.0275 10H9.58753L10.9195 2.464C10.6795 2.488 10.4795 2.6 10.3195 2.8L10.1395 2.656C10.3795 2.368 10.6795 2.224 11.0395 2.224C11.4075 2.224 11.6915 2.316 11.8915 2.5C12.0915 2.684 12.1915 2.944 12.1915 3.28C12.1915 3.344 12.1835 3.448 12.1675 3.592L11.6635 6.436C11.9915 5.7 12.4995 5.332 13.1875 5.332C13.6595 5.332 14.0275 5.468 14.2915 5.74C14.5555 6.004 14.6875 6.372 14.6875 6.844C14.6875 7.092 14.6115 7.572 14.4595 8.284C14.3075 8.988 14.2235 9.516 14.2075 9.868ZM20.2712 10.108C19.5672 10.108 19.1832 9.8 19.1192 9.184C18.7672 9.8 18.3232 10.108 17.7872 10.108C17.2512 10.108 16.8232 9.948 16.5032 9.628C16.1912 9.3 16.0352 8.844 16.0352 8.26C16.0352 7.348 16.2592 6.632 16.7072 6.112C17.1552 5.592 17.7352 5.332 18.4472 5.332C19.0312 5.332 19.4192 5.608 19.6112 6.16C19.6512 5.92 19.6952 5.68 19.7432 5.44C20.3352 5.44 20.7752 5.416 21.0632 5.368L21.2192 5.332L20.3912 9.868C20.6312 9.844 20.8312 9.732 20.9912 9.532L21.1712 9.676C20.9312 9.964 20.6312 10.108 20.2712 10.108ZM17.3912 8.872C17.3912 9.232 17.4352 9.484 17.5232 9.628C17.6192 9.764 17.7632 9.832 17.9552 9.832C18.1472 9.832 18.3432 9.728 18.5432 9.52C18.8072 9.248 19.0192 8.904 19.1792 8.488C19.2032 8.384 19.2472 8.136 19.3112 7.744C19.3832 7.344 19.4432 7.016 19.4912 6.76C19.4672 6.456 19.3832 6.192 19.2392 5.968C19.0952 5.744 18.9152 5.632 18.6992 5.632C18.3072 5.632 17.9912 5.984 17.7512 6.688C17.5112 7.384 17.3912 8.112 17.3912 8.872ZM25.1477 2.224C25.4357 2.224 25.6717 2.332 25.8557 2.548C26.0477 2.764 26.1437 3.088 26.1437 3.52C26.1437 3.952 25.9717 4.592 25.6277 5.44H26.0837L26.0597 5.656H25.5317C25.2597 6.336 25.1237 6.852 25.1237 7.204H24.9077C24.9077 6.788 25.0397 6.272 25.3037 5.656H24.6077C24.3677 6.912 24.0597 8.64 23.6837 10.84H22.2317L23.1557 5.656H22.4237L22.4477 5.44H23.1917L23.3837 4.408C23.5117 3.616 23.7077 3.056 23.9717 2.728C24.2437 2.392 24.6357 2.224 25.1477 2.224ZM25.9157 3.496C25.9157 3.208 25.8477 2.96 25.7117 2.752C25.5837 2.544 25.4237 2.44 25.2317 2.44C25.1517 2.752 24.9557 3.752 24.6437 5.44H25.3877C25.7397 4.64 25.9157 3.992 25.9157 3.496ZM28.6722 9.676C28.4322 9.964 28.1322 10.108 27.7722 10.108C27.4122 10.108 27.1282 10.016 26.9202 9.832C26.7202 9.648 26.6202 9.408 26.6202 9.112C26.6202 9.008 26.6842 8.572 26.8122 7.804L27.2082 5.656H26.7042L26.7282 5.44H27.2442C27.8362 5.44 28.2722 5.416 28.5522 5.368L28.7202 5.332L27.8922 9.868C28.1322 9.844 28.3322 9.732 28.4922 9.532L28.6722 9.676ZM27.6162 4.18C27.4482 4.012 27.3642 3.808 27.3642 3.568C27.3642 3.328 27.4482 3.124 27.6162 2.956C27.7842 2.78 27.9882 2.692 28.2282 2.692C28.4682 2.692 28.6722 2.78 28.8402 2.956C29.0162 3.124 29.1042 3.328 29.1042 3.568C29.1042 3.808 29.0162 4.012 28.8402 4.18C28.6722 4.348 28.4682 4.432 28.2282 4.432C27.9882 4.432 27.7842 4.348 27.6162 4.18ZM30.9665 9.796C31.7585 9.796 32.1545 9.212 32.1545 8.044C32.1545 7.756 32.1105 7.416 32.0225 7.024C31.9425 6.632 31.8945 6.388 31.8785 6.292C31.3905 6.796 30.8425 7.1 30.2345 7.204V6.916C30.8105 6.788 31.3505 6.46 31.8545 5.932V5.884C31.8545 5.692 31.8825 5.504 31.9385 5.32C31.9945 5.136 32.0505 5 32.1065 4.912L32.1905 4.78H32.4785C32.4785 5.132 32.5345 5.456 32.6465 5.752C32.7585 6.04 32.8825 6.276 33.0185 6.46C33.1545 6.636 33.2785 6.872 33.3905 7.168C33.5025 7.456 33.5585 7.776 33.5585 8.128C33.5585 8.696 33.3425 9.168 32.9105 9.544C32.4865 9.92 31.9745 10.108 31.3745 10.108C30.7745 10.108 30.3185 9.972 30.0065 9.7C29.7025 9.428 29.5505 9.116 29.5505 8.764C29.5505 8.404 29.6385 8.148 29.8145 7.996C29.9905 7.836 30.1985 7.756 30.4385 7.756C30.6785 7.756 30.8745 7.836 31.0265 7.996C31.1865 8.148 31.2665 8.348 31.2665 8.596C31.2665 8.836 31.1905 9.04 31.0385 9.208C30.8865 9.376 30.6905 9.46 30.4505 9.46C30.3465 9.46 30.2385 9.444 30.1265 9.412C30.3025 9.668 30.5825 9.796 30.9665 9.796Z" fill="#10B981"/>
<path d="M35.236 6.268C35.236 7.028 35.64 7.536 36.448 7.792C36.768 7.888 37.032 7.944 37.24 7.96C37.456 7.968 37.572 7.964 37.588 7.948L37.6 8.2H37.528C36.632 8.2 35.952 7.976 35.488 7.528C35.152 7.216 34.984 6.796 34.984 6.268C34.984 5.132 35.584 4.252 36.784 3.628C37.992 3.004 39.688 2.692 41.872 2.692C43.016 2.692 43.82 2.816 44.284 3.064C44.748 3.312 44.98 3.668 44.98 4.132C44.98 4.5 44.864 4.876 44.632 5.26C44.4 5.636 44.12 6.028 43.792 6.436C43.464 6.844 43.24 7.188 43.12 7.468H43.756L43.732 7.684H43.036C42.972 7.892 42.94 8.08 42.94 8.248H42.688C42.688 8.056 42.712 7.868 42.76 7.684H41.236L40.984 9.088C40.816 9.952 40.412 10.628 39.772 11.116C39.132 11.612 38.444 11.86 37.708 11.86V11.62C38.252 11.612 38.6 11.496 38.752 11.272C38.912 11.048 39.068 10.5 39.22 9.628L39.544 7.684H38.932L38.956 7.468H39.58L40.36 2.992C38.72 3.128 37.456 3.48 36.568 4.048C35.68 4.608 35.236 5.348 35.236 6.268ZM44.692 4.132C44.692 3.332 43.784 2.932 41.968 2.932C41.64 5.196 41.408 6.708 41.272 7.468H42.844C42.964 7.164 43.184 6.808 43.504 6.4C43.824 5.984 44.1 5.588 44.332 5.212C44.572 4.836 44.692 4.476 44.692 4.132ZM47.4431 10.108C46.8271 10.108 46.3591 9.956 46.0391 9.652C45.7191 9.34 45.5591 8.952 45.5591 8.488C45.5591 8.016 45.5991 7.616 45.6791 7.288C45.7671 6.952 45.9071 6.632 46.0991 6.328C46.2911 6.016 46.5791 5.772 46.9631 5.596C47.3551 5.42 47.8391 5.332 48.4151 5.332C48.9991 5.332 49.4511 5.488 49.7711 5.8C50.0991 6.104 50.2631 6.524 50.2631 7.06C50.2631 7.972 50.0191 8.708 49.5311 9.268C49.0511 9.828 48.3551 10.108 47.4431 10.108ZM46.9151 8.872C46.9151 9.512 47.0991 9.832 47.4671 9.832C47.8431 9.832 48.1751 9.512 48.4631 8.872C48.7591 8.224 48.9071 7.456 48.9071 6.568C48.9071 5.896 48.7231 5.56 48.3551 5.56C47.9951 5.56 47.6631 5.868 47.3591 6.484C47.0631 7.092 46.9151 7.888 46.9151 8.872ZM53.22 10.108C52.604 10.108 52.136 9.956 51.816 9.652C51.496 9.34 51.336 8.952 51.336 8.488C51.336 8.016 51.376 7.616 51.456 7.288C51.544 6.952 51.684 6.632 51.876 6.328C52.068 6.016 52.356 5.772 52.74 5.596C53.132 5.42 53.616 5.332 54.192 5.332C54.776 5.332 55.228 5.488 55.548 5.8C55.876 6.104 56.04 6.524 56.04 7.06C56.04 7.972 55.796 8.708 55.308 9.268C54.828 9.828 54.132 10.108 53.22 10.108ZM52.692 8.872C52.692 9.512 52.876 9.832 53.244 9.832C53.62 9.832 53.952 9.512 54.24 8.872C54.536 8.224 54.684 7.456 54.684 6.568C54.684 5.896 54.5 5.56 54.132 5.56C53.772 5.56 53.44 5.868 53.136 6.484C52.84 7.092 52.692 7.888 52.692 8.872ZM61.2768 10.108C60.5728 10.108 60.1888 9.808 60.1248 9.208C59.7728 9.808 59.3248 10.108 58.7808 10.108C58.2368 10.108 57.8208 9.956 57.5328 9.652C57.2448 9.34 57.1008 8.916 57.1008 8.38C57.1008 7.436 57.3248 6.692 57.7728 6.148C58.2208 5.604 58.8008 5.332 59.5128 5.332C59.9208 5.332 60.2368 5.456 60.4608 5.704C60.5568 5.832 60.6168 5.928 60.6408 5.992L61.2888 2.464C61.0488 2.488 60.8488 2.6 60.6888 2.8L60.5088 2.656C60.7488 2.368 61.0488 2.224 61.4088 2.224C61.7768 2.224 62.0608 2.316 62.2608 2.5C62.4608 2.684 62.5608 2.944 62.5608 3.28C62.5608 3.344 62.5528 3.448 62.5368 3.592C62.1448 5.792 61.7648 7.884 61.3968 9.868C61.6368 9.844 61.8368 9.732 61.9968 9.532L62.1768 9.676C61.9368 9.964 61.6368 10.108 61.2768 10.108ZM58.4568 8.872C58.4568 9.24 58.4928 9.492 58.5648 9.628C58.6448 9.764 58.7648 9.832 58.9248 9.832C59.0928 9.832 59.2528 9.776 59.4048 9.664C59.5568 9.552 59.6848 9.408 59.7888 9.232C59.9808 8.936 60.1168 8.684 60.1968 8.476L60.5448 6.58C60.5288 6.324 60.4448 6.092 60.2928 5.884C60.1408 5.668 59.8808 5.56 59.5128 5.56C59.2568 5.56 59.0168 5.936 58.7928 6.688C58.5688 7.44 58.4568 8.168 58.4568 8.872Z" fill="black"/>
</svg>
